{"title":"The Avengers [2012] BluRay 1080p Dual Audio[Hin5.1[640kbps]-Eng5","uid":9129614,"size":5080663757,"categoryP":"video","categoryS":"hd___movies","magnet":"?xt=urn:btih:31688bb8d76fb2049bb8aa97561496b3cdb13b65&amp;dn=The+Avengers+%5B2012%5D+BluRay+1080p+Dual+Audio%5BHin5.1%5B640kbps%5D-Eng5&amp;tr=udp%3A%2F%2Ftracker.openbittorrent.com%3A80&amp;tr=udp%3A%2F%2Fopen.demonii.com%3A1337&amp;tr=udp%3A%2F%2Ftracker.coppersurfer.tk%3A6969&amp;tr=udp%3A%2F%2Fexodus.desync.com%3A6969","seeders":2,"leechers":2,"uploader":"tariq51","files":4,"time":1383285246,"description":"\n[b][i][size=3][color=crimson]RELEASE TITLE:[/color][/size][/i][/b]\n          ======================================\n[b][i][size=3][color=green]The Avengers [2012] BluRay 1080p Dual Audio[Hin5.1[640kbps]-Eng5.1] Tariq Qureshi.mkv[/color][/size][/i][/b]\n\n\n                     =================================================\n[b][i][size=2][color=crimson] \n  THANKS To KISHAN PATEL FOR HINDI AUDIO SPECIAL THANKS TO MOHSIN PATHAN-KISHAN PATEL-HIREN RAJPUT-INAM70-TAHA RIZVI-GPSOFT- AND MANY MORE HELP ME[/color][/size][/i][/b]\n\n\n========================================================================\n[IMG]http://i.imgur.com/FNM6Ztr.jpg[/IMG]\n===========================================\n\n[b][i][size=3][color=green]General:[/color][/size][/i][/b]\n======================================\n[b][i][size=2][color=crimson]IMDB LINK                                :http://www.imdb.com/title/tt0848228/\nFormat                                   : Matroska\nFormat version                           : Version 4 / Version 2\nFile size                                : 4.67 GiB\nDuration                                 : 2h 22mn\nOverall bit rate                         : 4 682 Kbps\nEncoded date                             : UTC 2013-10-31 11:44:03\nMovie name                               : The Avengers [2012] BluRay 1080p Dual Audio[Hin5.1[640kbps]-Eng5.1] Tariq Qureshi.mkv[/color][/size][/i][/b]\n                                   \n=======================================================================================\n[b][i][size=3][color=green]VIDEO:[/color][/size][/i][/b]\n                            =======================\n\n[b][i][size=2][color=crimson]ID                                       : 1\nFormat                                   : AVC\nFormat/Info                              : Advanced Video Codec\nFormat profile                           : &lt;a class=&quot;__cf_email__&quot; href=&quot;/cdn-cgi/l/email-protection&quot; data-cfemail=&quot;743c1d131c3438405a44&quot;&gt;[email&amp;#160;protected]&lt;/a&gt;&lt;script cf-hash='f9e31' type=&quot;text/javascript&quot;&gt;\n/* &lt;![CDATA[ */!function(){try{var t=&quot;currentScript&quot;in document?document.currentScript:function(){for(var t=document.getElementsByTagName(&quot;script&quot;),e=t.length;e--;)if(t[e].getAttribute(&quot;cf-hash&quot;))return t[e]}();if(t&amp;&amp;t.previousSibling){var e,r,n,i,c=t.previousSibling,a=c.getAttribute(&quot;data-cfemail&quot;);if(a){for(e=&quot;&quot;,r=parseInt(a.substr(0,2),16),n=2;a.length-n;n+=2)i=parseInt(a.substr(n,2),16)^r,e+=String.fromCharCode(i);e=document.createTextNode(e),c.parentNode.replaceChild(e,c)}}}catch(u){}}();/* ]]&gt; */&lt;/script&gt;\nFormat settings, CABAC                   : Yes\nFormat settings, ReFrames                : 4 frames\nFormat settings, GOP                     : M=1, N=3\nCodec ID                                 : V_MPEG4/ISO/AVC\nDuration                                 : 2h 22mn\nBit rate                                 : 3 400 Kbps\nWidth                                    : 1 920 pixels\nHeight                                   : 1 080 pixels\nDisplay aspect ratio                     : 16:9\nFrame rate mode                          : Constant\nFrame rate                               : 23.976 fps\nLanguage                                 : English\nDefault                                  : Yes\nForced                                   : No[/color][/size][/i][/b]\n=====================================================================================\n[b][i][size=3][color=green]AUDIO:1[/color][/size][/i][/b]\n          ================\n[b][i][size=2][color=crimson]ID                                       : 2\nFormat                                   : AC-3\nFormat/Info                              : Audio Coding 3\nMode extension                           : CM (complete main)\nFormat settings, Endianness              : Big\nCodec ID                                 : A_AC3\nDuration                                 : 2h 22mn\nBit rate mode                            : Constant\nBit rate                                 : 640 Kbps\nChannel(s)                               : 6 channels\nChannel positions                        : Front: L C R, Side: L R, LFE\nSampling rate                            : 48.0 KHz\nBit depth                                : 16 bits\nCompression mode                         : Lossy\nStream size                              : 654 MiB (14%)\nTitle                                    : 5.1 Tariq Qureshi\nLanguage                                 : English\nDefault                                  : No\nForced                                   : No[/color][/size][/i][/b]\n===================================================================================\n[b][i][size=3][color=green]AUDIO:2[/color][/size][/i][/b]\n            ================\n[b][i][size=2][color=crimson]ID                                       : 3\nFormat                                   : AC-3\nFormat/Info                              : Audio Coding 3\nMode extension                           : CM (complete main)\nFormat settings, Endianness              : Big\nCodec ID                                 : A_AC3\nDuration                                 : 2h 22mn\nBit rate mode                            : Constant\nBit rate                                 : 640 Kbps\nChannel(s)                               : 6 channels\nChannel positions                        : Front: L C R, Side: L R, LFE\nSampling rate                            : 48.0 KHz\nBit depth                                : 16 bits\nCompression mode                         : Lossy\nStream size                              : 654 MiB (14%)\nTitle                                    : 5.1 Tariq Qureshi\nLanguage                                 : Hindi\nDefault                                  : Yes\nForced                                   : No\n\n[/color][/size][/i][/b]\n===================================================================================\n[b][i][size=3][color=green][IMG]http://i.imgur.com/Q3KFG70.gif[/IMG][/color][/size][/i][/b]\n            =========================\n[IMG]http://i.imgur.com/jd3h9tn.png[/IMG]\n[IMG]http://i.imgur.com/bBG3dcF.png[/IMG]\n[IMG]http://i.imgur.com/jI019HR.png[/IMG]\n[IMG]http://i.imgur.com/rapGhNL.png[/IMG]\n[IMG]http://i.imgur.com/ys9gQ4K.png[/IMG]\n[IMG]http://i.imgur.com/cHcv0G1.png[/IMG]\n[IMG]http://i.imgur.com/LrA1hQB.png[/IMG]\n[IMG]http://i.imgur.com/STDTNwE.png[/IMG]\n[IMG]http://i.imgur.com/yaG3bau.png[/IMG]\n[IMG]http://i.imgur.com/GeHhGHD.png[/IMG]\n[IMG]http://i.imgur.com/q60i4zi.png[/IMG]\n[IMG]http://i.imgur.com/hxbNiD9.png[/IMG]\n[IMG]http://i.imgur.com/tu2dUhb.png[/IMG]\n[IMG]http://i.imgur.com/xOsElYX.png[/IMG]\n===================================================================================\n[b][i][size=3][color=crimson]HEY GUYS M TARIQ QURESHI ~  HOPE U LIKED MY WORK \nFOR MY AND MY GROUP UPLOADS JOIN\n======================================================================\nOur group\n========================================================================\nCONT ME=OR=\n==================================================================================\n[b][i][size=3][color=green]SEEDING FROM HIGH SPEED SEEDBOX[/color][/size][/i][/b]","torrent":{"xt":"urn:btih:31688bb8d76fb2049bb8aa97561496b3cdb13b65","amp;dn":"The+Avengers+%5B2012%5D+BluRay+1080p+Dual+Audio%5BHin5.1%5B640kbps%5D-Eng5","amp;tr":["udp%3A%2F%2Ftracker.openbittorrent.com%3A80","udp%3A%2F%2Fopen.demonii.com%3A1337","udp%3A%2F%2Ftracker.coppersurfer.tk%3A6969","udp%3A%2F%2Fexodus.desync.com%3A6969"],"infoHash":"31688bb8d76fb2049bb8aa97561496b3cdb13b65","infoHashBuffer":{"type":"Buffer","data":[49,104,139,184,215,111,178,4,155,184,170,151,86,20,150,179,205,177,59,101]},"announce":[],"urlList":[]}}